# xmcd
#
# Track frame offsets:
#	150
#	15123
#	31193
#	47160
#	61960
#	72761
#	81003
#	98467
#	119431
#	142942
#	158638
#	173334
#	190842
#	202137
#	220993
#	234088
#	245697
#	264817
#	279804
#	294729
#	307985
#	327234
#
# Disc length: 4549 seconds
# Revision: 0
# Processed by: cddbd v1.5.2PL0 Copyright (c) Steve Scherf et al.
# Submitted via: dBpowerAMP V12.0
#
DISCID=1c11c316
DTITLE=Elvis Presley - You Know It Don't Have To Be Strictly Country Vol. 1
DYEAR=1900
DGENRE=Rock
TTITLE0=Twenty Days and Tweny Nights (Take 9 Undubbed Master-Acetate)
TTITLE1=I've Lost You (Take 7 Undubbed Master-Acetate)
TTITLE2=I Was Born About 10,000 Years Ago (Take 1 Unedited Master)
TTITLE3=The Sound Of Your Cry (Take 11 Undubbed Master-Acetate)
TTITLE4=The Fool (Take 1 Try Out)
TTITLE5=Little Cabin On The Hill (Take 2 Undubbed Master)
TTITLE6=Cindy Cindy (Take 1 Unedited)
TTITLE7=Bridge Over Troubled Water (Take 8 Unrepaired Und. Master-Acetate)
TTITLE8=I Got My Mojo Workin'/Keep Your Hands Off It (Take 1 Unedited Overdubbed Master)
TTITLE9=How The Web Was Woven (Take 3 - June 22 Backup Vocal Overdubs)
TTITLE10=It's Your Baby, You Rock It (Take 5 Unedited Undubbed Master-Acetate)
TTITLE11=Stranger In The Crowd (Take 9 - June 22 Backup Vocals and July 18 Strings)
TTITLE12=I'll Never Know (Take 7 July 18 Brass and Strings Overdubs-No Backing Vocals)
TTITLE13=Mary In The Morning (Take 5 Unedited Undubbed Master-Acetate)
TTITLE14=It Ain't No Big Thing (Take 9 July 18 Strings Overdubs-No Backing Vocals)
TTITLE15=You Don't Have To Say You Love Me (Take 3 July 18 Strings Overdubs)
TTITLE16=Just Pretend (Take 3 Undubbed Master-Acetate)
TTITLE17=This Is Our Dance (Take 11 Undubbed Master-Acetate)
TTITLE18=Life (Take 20 Undubbed Master-Acetate)
TTITLE19=Heart of Rome (Spliced Undubbed Master)
TTITLE20=Bridge Over Troubled Water (June 23 Vocal Repair and Harmony Vocal Overdub)
TTITLE21=There Goes My Everything (Take 3 Unedited Undubbed Master-Acetate)
EXTD=
EXTT0=
EXTT1=
EXTT2=
EXTT3=
EXTT4=
EXTT5=
EXTT6=
EXTT7=
EXTT8=
EXTT9=
EXTT10=
EXTT11=
EXTT12=
EXTT13=
EXTT14=
EXTT15=
EXTT16=
EXTT17=
EXTT18=
EXTT19=
EXTT20=
EXTT21=
PLAYORDER=
